<?xml version="1.0" standalone="no"?>
<!DOCTYPE svg PUBLIC "-//W3C//DTD SVG 20010904//EN"
 "http://www.w3.org/TR/2001/REC-SVG-20010904/DTD/svg10.dtd">
<svg version="1.0" xmlns="http://www.w3.org/2000/svg"
 width="120.000000pt" height="120.000000pt" viewBox="0 0 120.000000 120.000000"
 preserveAspectRatio="xMidYMid meet">
<metadata>
Created by potrace 1.11, written by Peter Selinger 2001-2013
</metadata>
<g transform="translate(0.000000,120.000000) scale(0.100000,-0.100000)"
fill="#000000" stroke="none">
<path d="M494 1158 c-5 -7 -2 -9 7 -4 8 4 5 0 -6 -9 -12 -9 -19 -25 -17 -38 2
-14 -7 -32 -23 -47 -19 -18 -24 -20 -19 -7 3 10 1 17 -5 17 -7 0 -11 8 -9 18
2 11 -3 16 -14 14 -10 -2 -18 2 -18 8 0 7 -5 6 -14 -2 -8 -7 -12 -16 -10 -20
3 -4 -3 -11 -11 -15 -14 -8 -13 -12 3 -31 13 -15 26 -20 37 -16 16 6 16 5 -1
-14 -24 -28 -26 -28 -46 6 -22 38 -78 38 -113 0 -24 -26 -24 -26 -4 -44 15
-13 16 -19 7 -26 -9 -5 -10 -8 -1 -8 6 0 15 4 18 10 6 10 54 10 56 0 7 -29 3
-60 -9 -60 -8 0 -11 7 -8 18 3 9 1 24 -4 32 -8 13 -14 10 -33 -14 -18 -23 -28
-27 -46 -21 -14 4 -21 3 -18 -2 10 -16 -73 -8 -86 8 -7 8 -10 13 -8 11 2 -1
14 4 27 13 20 13 22 12 27 -5 3 -11 10 -20 17 -20 7 0 4 11 -8 28 -10 15 -22
35 -25 45 -11 31 -66 5 -67 -31 0 -7 5 -10 12 -6 7 4 8 3 4 -5 -4 -6 -12 -9
-17 -6 -5 4 -17 1 -26 -4 -10 -6 -14 -11 -9 -11 5 0 3 -6 -3 -14 -18 -22 7
-60 28 -43 10 8 13 9 8 0 -5 -7 0 -9 13 -6 11 3 17 9 14 14 -8 13 26 23 38 11
6 -6 6 -12 0 -16 -11 -7 -3 -56 9 -56 5 0 9 5 9 11 0 5 5 7 11 3 6 -3 7 -9 3
-13 -14 -9 -10 -34 7 -59 15 -20 18 -21 32 -8 8 8 17 12 21 9 3 -4 6 3 6 13 0
11 5 25 10 32 6 6 7 10 4 7 -4 -2 -16 0 -26 6 -15 8 -17 14 -9 22 7 7 7 14 0
24 -8 9 -8 13 0 13 6 0 11 -5 11 -10 0 -6 16 -18 36 -27 29 -14 32 -18 17 -24
-12 -5 -7 -7 17 -7 102 -1 143 -20 201 -93 l33 -41 -35 8 c-19 4 -44 7 -56 7
-17 -1 -23 5 -23 19 0 14 -5 18 -15 14 -8 -3 -15 -1 -15 4 0 33 -52 -10 -56
-46 -2 -23 5 -28 33 -25 6 1 15 -3 18 -9 5 -8 12 -4 22 9 13 19 21 20 71 15
31 -3 61 -8 66 -11 9 -6 35 -65 43 -97 14 -58 19 -94 17 -121 -2 -57 -15 -179
-19 -185 -2 -4 -6 -17 -9 -31 -20 -99 -36 -182 -36 -190 0 -14 90 -11 91 4 1
6 3 43 4 82 8 192 21 256 61 301 33 36 59 44 171 48 59 2 122 8 138 11 62 15
88 10 80 -14 -7 -24 9 -35 42 -26 19 4 24 11 20 25 -3 13 1 21 13 25 10 3 20
14 23 25 4 15 -3 22 -30 31 -29 9 -37 8 -55 -8 -12 -10 -18 -12 -14 -5 5 7 1
12 -10 12 -15 0 -14 3 4 18 16 14 20 27 16 48 -3 21 -2 25 5 14 8 -12 13 -7
26 22 19 46 19 55 0 66 -9 4 -16 24 -17 45 -1 34 -8 42 -31 38 -5 -1 -6 3 -3
8 4 5 2 12 -2 15 -16 10 -50 -40 -45 -66 6 -31 -23 -46 -45 -24 -12 12 -12 16
7 25 25 14 26 24 5 45 -24 25 -55 4 -48 -32 4 -19 0 -32 -10 -41 -18 -15 -21
-10 -29 50 -4 27 -1 38 14 47 10 7 19 19 19 28 0 9 -5 12 -12 8 -9 -5 -9 -2 1
9 12 15 11 17 -3 17 -9 0 -16 4 -16 9 0 13 -53 9 -62 -4 -12 -16 -9 -27 4 -19
8 5 9 2 4 -12 -12 -31 -12 -38 2 -39 15 0 45 -36 37 -43 -2 -3 -13 1 -22 9
-16 12 -17 12 -5 -2 10 -13 10 -19 -2 -29 -19 -15 -41 -3 -26 15 7 9 6 16 -5
25 -21 18 -48 5 -40 -20 4 -13 2 -20 -6 -20 -8 0 -5 -7 6 -20 20 -22 12 -28
-9 -7 -16 16 -31 71 -16 62 5 -3 10 1 10 11 0 13 -3 14 -14 5 -7 -6 -20 -9
-29 -5 -8 3 -18 1 -21 -5 -8 -13 -53 6 -60 26 -4 9 4 15 23 19 18 4 33 16 41
33 l12 26 11 -23 c8 -17 6 -26 -8 -42 -10 -11 -13 -20 -8 -20 6 0 16 6 22 14
7 8 21 13 31 11 31 -6 52 51 23 62 -7 3 -11 9 -8 13 3 5 -3 6 -13 4 -18 -5
-51 39 -50 66 3 46 -2 59 -22 55 -13 -2 -20 2 -20 11 0 8 -4 14 -9 14 -12 0
-23 -29 -15 -41 3 -5 2 -9 -3 -8 -25 4 -35 -2 -28 -18 4 -10 10 -24 13 -32 4
-11 1 -13 -13 -7 -11 4 -25 0 -35 -9 -14 -12 -20 -13 -26 -4 -4 8 -3 10 4 5 7
-4 12 -2 12 4 0 6 -10 14 -22 19 -14 5 -17 10 -10 15 7 4 12 4 12 0 0 -4 9 3
20 16 13 15 17 27 11 33 -5 5 -7 16 -4 23 3 9 -2 14 -14 14 -10 0 -24 9 -30
20 -11 16 -10 18 2 14 26 -10 13 39 -14 53 -28 16 -28 16 -37 1z m-7 -128
c-31 -32 -43 -38 -53 -29 -17 14 -18 32 -1 26 6 -2 11 -10 9 -16 -1 -7 2 -9 8
-6 6 4 9 12 7 18 -7 19 44 68 58 57 9 -8 2 -21 -28 -50z m-164 -13 c3 -7 -3
-13 -14 -13 -13 0 -15 3 -7 13 6 7 12 13 13 13 2 0 5 -6 8 -13z m182 -7 c-11
-18 6 -32 23 -18 9 7 5 -2 -8 -19 -13 -18 -25 -31 -27 -30 -8 9 -9 54 -1 65
12 14 22 16 13 2z m-149 -40 c24 -34 23 -47 -3 -42 -14 3 -28 13 -30 23 -3 11
-10 19 -15 19 -5 0 -6 5 -3 10 9 14 38 8 51 -10z m339 -40 c-12 -13 -15 -24
-8 -32 13 -18 10 -41 -6 -46 -9 -3 -11 0 -6 8 6 9 3 9 -12 1 -15 -8 -25 -7
-39 5 -18 15 -18 15 2 9 27 -7 53 20 36 37 -21 21 -14 41 13 36 18 -4 25 -1
26 11 0 11 2 12 6 3 3 -7 -3 -22 -12 -32z m-225 8 c0 -7 -4 -19 -9 -26 -7 -11
-9 -10 -14 3 -5 11 -3 14 5 9 8 -5 9 -2 5 9 -3 10 -2 17 3 17 6 0 10 -6 10
-12z m-185 -28 c-4 -13 4 -24 30 -40 19 -12 43 -23 52 -24 9 -2 19 -8 21 -14
2 -8 -6 -8 -27 -2 -17 5 -31 7 -31 4 0 -2 -15 10 -34 28 -25 24 -32 36 -24 45
5 7 6 18 2 24 -4 8 -3 9 5 5 6 -4 9 -16 6 -26z m269 14 c5 -14 4 -15 -9 -4
-10 8 -15 9 -15 1 0 -6 -5 -11 -11 -11 -8 0 -8 5 1 15 16 19 26 19 34 -1z
m-69 -35 c-4 -5 -1 -9 4 -9 6 0 11 -4 11 -10 0 -5 -6 -7 -14 -4 -8 3 -14 14
-13 24 1 10 5 16 9 14 5 -3 6 -10 3 -15z m-215 -45 c0 -2 -9 0 -20 6 -11 6
-20 13 -20 16 0 2 9 0 20 -6 11 -6 20 -13 20 -16z m205 -24 c3 -6 -4 -10 -17
-10 -18 0 -20 2 -8 10 19 12 18 12 25 0z m69 -34 c2 -14 -1 -23 -5 -20 -5 3
-9 17 -9 31 0 32 11 24 14 -11z m86 -22 c0 -9 6 -14 13 -11 8 3 12 -10 13 -43
0 -51 -13 -58 -32 -16 -9 18 -9 28 0 37 8 9 8 10 0 6 -7 -4 -14 3 -16 18 -4
17 -1 25 8 25 8 0 14 -7 14 -16z m-102 -40 c-4 -3 -12 5 -18 18 -12 22 -12 22
6 6 10 -10 15 -20 12 -24z m358 19 c-2 -9 -10 -17 -19 -19 -14 -2 -15 1 -7 17
13 23 29 25 26 2z m-59 -9 c3 -9 0 -20 -8 -25 -13 -8 -5 -13 14 -10 4 1 2 -9
-4 -21 l-12 -22 -8 22 c-5 12 -6 29 -3 37 4 8 1 15 -5 15 -6 0 -11 5 -11 10 0
16 30 11 37 -6z m-106 -24 c12 0 17 4 13 11 -14 23 43 -22 64 -50 29 -39 10
-52 -24 -16 -25 27 -31 41 -14 30 6 -3 10 -2 10 4 0 14 -22 19 -50 11 -22 -6
-26 -4 -27 14 -1 11 1 15 4 9 3 -7 14 -13 24 -13z m207 -14 c-25 -19 -22 -29
5 -16 20 10 20 10 -3 -12 -14 -13 -24 -30 -22 -39 2 -9 -5 -19 -14 -23 -14 -5
-15 -4 -5 8 7 8 10 20 7 25 -4 5 -2 12 4 16 7 4 7 12 0 25 -8 15 -6 19 13 23
12 2 24 5 27 5 3 1 -3 -5 -12 -12z m-325 -13 c-3 -7 -9 -13 -13 -13 -4 0 -10
6 -13 13 -3 7 3 13 13 13 10 0 16 -6 13 -13z m387 7 c0 -5 -8 -10 -17 -10 -15
0 -16 2 -3 10 19 12 20 12 20 0z m40 -13 c0 -7 -9 -18 -20 -25 -23 -14 -24
-13 -10 23 10 25 30 27 30 2z m-61 -33 c-8 -10 -8 -14 -1 -14 6 0 9 -7 6 -15
-4 -8 -10 -15 -16 -15 -5 0 -6 5 -3 10 3 6 2 10 -4 10 -5 0 -15 -8 -20 -17 -6
-10 -11 -13 -11 -7 0 6 11 21 25 34 13 12 22 27 18 33 -3 6 -1 7 6 3 9 -6 9
-11 0 -22z m-323 -8 c6 -6 10 -25 9 -41 -1 -17 -3 -40 -3 -52 -3 -40 -20 -25
-31 28 -6 28 -16 60 -22 71 -10 18 -8 19 12 13 13 -4 28 -13 35 -19z m164 -42
c13 -32 24 -31 16 2 -5 17 -3 23 4 19 30 -18 -11 -89 -69 -116 -24 -11 -46
-18 -48 -15 -3 3 -14 1 -24 -5 -24 -12 -24 -3 -3 62 9 27 14 63 12 79 -3 21
-1 29 7 26 7 -2 18 0 25 4 18 11 68 -24 80 -56z m47 51 c0 -8 -4 -15 -9 -15
-10 0 -11 14 -1 23 9 10 10 9 10 -8z m173 -20 c-20 -21 -22 -28 -12 -50 9 -20
8 -27 -4 -37 -8 -7 -21 -19 -29 -26 -8 -7 -15 -11 -15 -8 0 3 -16 -2 -35 -10
-41 -17 -111 -19 -121 -2 -4 6 -3 8 4 4 5 -3 23 5 39 18 15 13 30 24 33 24 80
11 92 16 103 41 11 26 46 71 55 71 3 0 -5 -11 -18 -25z m-158 -67 c-7 -7 -12
-8 -12 -2 0 14 12 26 19 19 2 -3 -1 -11 -7 -17z m68 7 c-7 -8 -22 -15 -34 -15
-21 1 -21 1 -2 15 27 21 53 20 36 0z m-87 -40 c-3 -9 -8 -14 -10 -11 -3 3 -2
9 2 15 9 16 15 13 8 -4z m246 -21 c13 -11 -8 -10 -34 2 l-30 13 30 -6 c17 -3
32 -7 34 -9z"/>
<path d="M294 1119 c-10 -11 -12 -19 -6 -19 7 0 12 -7 12 -15 0 -22 38 -18 50
5 13 24 8 36 -19 43 -12 3 -27 -3 -37 -14z"/>
<path d="M600 981 c0 -5 7 -11 14 -14 10 -4 13 -1 9 9 -6 15 -23 19 -23 5z"/>
<path d="M690 809 c0 -11 4 -18 10 -14 5 3 7 12 3 20 -7 21 -13 19 -13 -6z"/>
</g>
</svg>
